<svg width="1320" height="848" viewBox="0 0 1320 848" fill="none" xmlns="http://www.w3.org/2000/svg">
<rect width="1320" height="499" fill="#FF603D"/>
<path d="M112.2 157.45H143.25V53.95H122.25V135.1L67.2002 53.95H36.0002V157.45H57.0002V76L112.2 157.45Z" fill="black"/>
<path d="M262.678 110.8C262.678 133.45 249.478 141.7 223.528 141.7C197.428 141.7 184.228 133.45 184.228 110.8V100.15C184.228 78.1 197.428 69.7 223.528 69.7C249.478 69.7 262.678 78.1 262.678 100.15V110.8ZM161.278 105.25C161.278 145.45 183.028 159.4 223.528 159.4C263.878 159.4 285.628 145.45 285.628 105.25C285.628 65.65 263.878 52 223.528 52C183.028 52 161.278 65.65 161.278 105.25Z" fill="black"/>
<path d="M303.774 53.95V157.45H326.574V119.35H361.374L384.624 157.45H409.824L385.224 117.25C399.024 113.05 406.224 102.55 406.224 86.35C406.224 65.5 393.474 53.95 370.074 53.95H303.774ZM383.274 88.3C383.274 96.55 378.624 102.25 366.924 102.25H326.574V70.9H366.924C378.774 70.9 383.274 76.45 383.274 84.85V88.3Z" fill="black"/>
<path d="M533.059 157.45H555.709V53.95H521.209L490.459 124L459.559 53.95H425.209V157.45H445.759V71.35L477.559 143.35H501.259L533.059 71.35V157.45Z" fill="black"/>
<path d="M607.375 115.15L627.475 68.8L647.575 115.15H607.375ZM613.075 53.95L567.625 157.45H588.925L600.025 131.8H654.925L666.025 157.45H689.575L644.275 53.95H613.075Z" fill="black"/>
<path d="M701.332 53.95V157.45H788.632V139H724.132V53.95H701.332Z" fill="black"/>
<path d="M802.407 53.95V157.45H825.207V53.95H802.407Z" fill="black"/>
<path d="M905.563 139H870.763V72.4H905.563C925.963 72.4 937.063 80.2 937.063 100.6V110.05C937.063 131.05 925.963 139 905.563 139ZM847.963 53.95V157.45H906.913C941.563 157.45 960.013 143.2 960.013 105.7C960.013 67.75 941.563 53.95 906.913 53.95H847.963Z" fill="black"/>
<path d="M1003.18 115.15L1023.28 68.8L1043.38 115.15H1003.18ZM1008.88 53.95L963.426 157.45H984.726L995.826 131.8H1050.73L1061.83 157.45H1085.38L1040.08 53.95H1008.88Z" fill="black"/>
<path d="M1154.73 139H1119.93V72.4H1154.73C1175.13 72.4 1186.23 80.2 1186.23 100.6V110.05C1186.23 131.05 1175.13 139 1154.73 139ZM1097.13 53.95V157.45H1156.08C1190.73 157.45 1209.18 143.2 1209.18 105.7C1209.18 67.75 1190.73 53.95 1156.08 53.95H1097.13Z" fill="black"/>
<path d="M172.8 220.95L152.25 303.75L129.75 220.95H102L78.75 303.75L58.8 220.95H36L61.2 324.45H91.05L114.45 241.8L136.95 324.45H166.5L192.6 220.95H172.8Z" fill="black"/>
<path d="M206.133 220.95V324.45H228.933V220.95H206.133Z" fill="black"/>
<path d="M309.289 306H274.489V239.4H309.289C329.689 239.4 340.789 247.2 340.789 267.6V277.05C340.789 298.05 329.689 306 309.289 306ZM251.689 220.95V324.45H310.639C345.289 324.45 363.739 310.2 363.739 272.7C363.739 234.75 345.289 220.95 310.639 220.95H251.689Z" fill="black"/>
<path d="M381.914 220.95V324.45H472.664V306.9H404.714V280.05H457.664V263.1H404.714V238.5H472.064V220.95H381.914Z" fill="black"/>
<rect x="3.5" y="495.5" width="1313" height="349" stroke="black" stroke-width="7"/>
<g clip-path="url(#clip0_375:95)">
<rect x="6.5" y="499.5" width="1306" height="341" fill="white"/>
<rect x="-39" y="595.785" width="1634.97" height="202" transform="rotate(-4.79909 -39 595.785)" fill="white"/>
<path d="M75.9735 741.678L105.677 739.184L97.3643 640.172L77.275 641.859L83.7926 719.49L24.6123 646.28L-5.23469 648.786L3.07797 747.798L23.1673 746.111L16.6256 668.193L75.9735 741.678ZM216.179 684.965C217.998 706.633 206.034 715.585 181.209 717.669C156.241 719.766 142.951 712.934 141.131 691.266L140.276 681.078C138.505 659.984 150.458 650.888 175.426 648.792C200.251 646.708 213.553 653.683 215.324 674.777L216.179 684.965ZM118.731 687.8C121.96 726.256 143.887 737.855 182.63 734.602C221.231 731.361 240.917 716.269 237.688 677.812C234.508 639.93 212.605 628.619 174.005 631.859C135.261 635.112 115.55 649.917 118.731 687.8ZM250.927 627.28L259.239 726.291L281.051 724.46L277.99 688.012L311.281 685.217L336.583 719.798L360.69 717.774L333.928 681.293C346.793 676.167 352.837 665.544 351.536 650.046C349.861 630.101 336.737 620.075 314.351 621.955L250.927 627.28ZM329.738 653.755C330.4 661.647 326.41 667.474 315.217 668.413L276.617 671.654L274.099 641.664L312.699 638.423C324.036 637.471 328.786 642.419 329.461 650.455L329.738 653.755ZM478.582 707.876L500.249 706.057L491.937 607.045L458.933 609.816L435.143 679.298L399.956 614.768L367.096 617.527L375.409 716.538L395.068 714.888L388.152 632.522L424.356 698.845L447.028 696.942L471.667 625.51L478.582 707.876ZM546.277 661.442L561.783 615.488L584.734 658.213L546.277 661.442ZM546.815 602.438L511.648 705.1L532.025 703.389L540.583 677.96L593.102 673.551L605.781 697.197L628.31 695.306L576.662 599.932L546.815 602.438ZM631.245 595.35L639.557 694.361L723.072 687.35L721.59 669.7L659.887 674.88L653.056 593.518L631.245 595.35ZM727.936 587.232L736.249 686.243L758.06 684.412L749.747 585.401L727.936 587.232ZM833.45 660.308L800.159 663.103L794.81 599.392L828.101 596.597C847.616 594.958 858.861 601.528 860.5 621.044L861.259 630.084C862.945 650.173 852.965 658.67 833.45 660.308ZM771.517 583.573L779.83 682.585L836.223 677.85C869.371 675.067 885.876 659.953 882.864 624.079C879.816 587.775 861.058 576.055 827.911 578.838L771.517 583.573ZM924.914 629.653L940.42 583.699L963.371 626.424L924.914 629.653ZM925.451 570.649L890.285 673.311L910.661 671.6L919.22 646.171L971.739 641.762L984.418 665.408L1006.95 663.517L955.298 568.143L925.451 570.649ZM1071.81 640.296L1038.52 643.091L1033.17 579.379L1066.47 576.584C1085.98 574.946 1097.23 581.516 1098.86 601.032L1099.62 610.072C1101.31 630.161 1091.33 638.658 1071.81 640.296ZM1009.88 563.561L1018.19 662.572L1074.59 657.838C1107.74 655.055 1124.24 639.941 1121.23 604.067C1118.18 567.763 1099.42 556.043 1066.28 558.826L1009.88 563.561ZM1288.39 540.178L1275.38 621.038L1247.2 543.636L1220.66 545.865L1205.07 626.941L1179.33 549.334L1157.52 551.166L1189.94 648.153L1218.49 645.756L1234.24 564.811L1262.4 642.069L1290.67 639.696L1307.33 538.588L1288.39 540.178ZM1320.27 537.501L1328.59 636.513L1350.4 634.682L1342.09 535.67L1320.27 537.501ZM1425.79 610.578L1392.5 613.373L1387.15 549.661L1420.44 546.866C1439.95 545.228 1451.2 551.798 1452.84 571.313L1453.6 580.353C1455.28 600.443 1445.3 608.939 1425.79 610.578ZM1363.85 533.842L1372.17 632.854L1428.56 628.119C1461.71 625.336 1478.21 610.223 1475.2 574.349C1472.15 538.044 1453.4 526.325 1420.25 529.108L1363.85 533.842ZM1488.43 523.383L1496.74 622.395L1583.56 615.106L1582.15 598.317L1517.15 603.775L1514.99 578.089L1565.64 573.836L1564.28 557.621L1513.63 561.874L1511.65 538.341L1576.08 532.932L1574.67 516.143L1488.43 523.383Z" fill="black"/>
<rect x="164" y="724.785" width="1634.97" height="202" transform="rotate(-4.79909 164 724.785)" fill="white"/>
<path d="M278.974 870.678L308.677 868.184L300.364 769.172L280.275 770.859L286.793 848.49L227.612 775.28L197.765 777.786L206.078 876.798L226.167 875.111L219.626 797.193L278.974 870.678ZM419.179 813.965C420.998 835.633 409.034 844.585 384.209 846.669C359.241 848.766 345.951 841.934 344.131 820.266L343.276 810.078C341.505 788.984 353.458 779.888 378.426 777.792C403.251 775.708 416.553 782.683 418.324 803.777L419.179 813.965ZM321.731 816.8C324.96 855.256 346.887 866.855 385.63 863.602C424.231 860.361 443.917 845.269 440.688 806.812C437.508 768.93 415.605 757.619 377.005 760.859C338.261 764.112 318.55 778.917 321.731 816.8ZM453.927 756.28L462.239 855.291L484.051 853.46L480.99 817.012L514.281 814.217L539.583 848.798L563.69 846.774L536.928 810.293C549.793 805.167 555.837 794.544 554.536 779.046C552.861 759.101 539.737 749.075 517.351 750.955L453.927 756.28ZM532.738 782.755C533.4 790.647 529.41 796.474 518.217 797.413L479.617 800.654L477.099 770.664L515.699 767.423C527.036 766.471 531.786 771.419 532.461 779.455L532.738 782.755ZM681.582 836.876L703.249 835.057L694.937 736.045L661.933 738.816L638.143 808.298L602.956 743.768L570.096 746.527L578.409 845.538L598.068 843.888L591.152 761.522L627.356 827.845L650.028 825.942L674.667 754.51L681.582 836.876ZM749.277 790.442L764.783 744.488L787.734 787.213L749.277 790.442ZM749.815 731.438L714.648 834.1L735.025 832.389L743.583 806.96L796.102 802.551L808.781 826.197L831.31 824.306L779.662 728.932L749.815 731.438ZM834.245 724.35L842.557 823.361L926.072 816.35L924.59 798.7L862.887 803.88L856.056 722.518L834.245 724.35ZM930.936 716.232L939.249 815.243L961.06 813.412L952.747 714.401L930.936 716.232ZM1036.45 789.308L1003.16 792.103L997.81 728.392L1031.1 725.597C1050.62 723.958 1061.86 730.528 1063.5 750.044L1064.26 759.084C1065.95 779.173 1055.97 787.67 1036.45 789.308ZM974.517 712.573L982.83 811.585L1039.22 806.85C1072.37 804.067 1088.88 788.953 1085.86 753.079C1082.82 716.775 1064.06 705.055 1030.91 707.838L974.517 712.573ZM1127.91 758.653L1143.42 712.699L1166.37 755.424L1127.91 758.653ZM1128.45 699.649L1093.29 802.311L1113.66 800.6L1122.22 775.171L1174.74 770.762L1187.42 794.408L1209.95 792.517L1158.3 697.143L1128.45 699.649ZM1274.81 769.296L1241.52 772.091L1236.17 708.379L1269.47 705.584C1288.98 703.946 1300.23 710.516 1301.86 730.032L1302.62 739.072C1304.31 759.161 1294.33 767.658 1274.81 769.296ZM1212.88 692.561L1221.19 791.572L1277.59 786.838C1310.74 784.055 1327.24 768.941 1324.23 733.067C1321.18 696.763 1302.42 685.043 1269.28 687.826L1212.88 692.561ZM1491.39 669.178L1478.38 750.038L1450.2 672.636L1423.66 674.865L1408.07 755.941L1382.33 678.334L1360.52 680.166L1392.94 777.153L1421.49 774.756L1437.24 693.811L1465.4 771.069L1493.67 768.696L1510.33 667.588L1491.39 669.178ZM1523.27 666.501L1531.59 765.513L1553.4 763.682L1545.09 664.67L1523.27 666.501ZM1628.79 739.578L1595.5 742.373L1590.15 678.661L1623.44 675.866C1642.95 674.228 1654.2 680.798 1655.84 700.313L1656.6 709.353C1658.28 729.443 1648.3 737.939 1628.79 739.578ZM1566.85 662.842L1575.17 761.854L1631.56 757.119C1664.71 754.336 1681.21 739.223 1678.2 703.349C1675.15 667.044 1656.4 655.325 1623.25 658.108L1566.85 662.842ZM1691.43 652.383L1699.74 751.395L1786.56 744.106L1785.15 727.317L1720.15 732.775L1717.99 707.089L1768.64 702.836L1767.28 686.621L1716.63 690.874L1714.65 667.341L1779.08 661.932L1777.67 645.143L1691.43 652.383Z" fill="black"/>
<rect x="183" y="718.785" width="1634.97" height="202" transform="rotate(-4.79909 183 718.785)" fill="white"/>
<path d="M297.974 864.678L327.677 862.184L319.364 763.172L299.275 764.859L305.793 842.49L246.612 769.28L216.765 771.786L225.078 870.798L245.167 869.111L238.626 791.193L297.974 864.678ZM438.179 807.965C439.998 829.633 428.034 838.585 403.209 840.669C378.241 842.766 364.951 835.934 363.131 814.266L362.276 804.078C360.505 782.984 372.458 773.888 397.426 771.792C422.251 769.708 435.553 776.683 437.324 797.777L438.179 807.965ZM340.731 810.8C343.96 849.256 365.887 860.855 404.63 857.602C443.231 854.361 462.917 839.269 459.688 800.812C456.508 762.93 434.605 751.619 396.005 754.859C357.261 758.112 337.55 772.917 340.731 810.8ZM472.927 750.28L481.239 849.291L503.051 847.46L499.99 811.012L533.281 808.217L558.583 842.798L582.69 840.774L555.928 804.293C568.793 799.167 574.837 788.544 573.536 773.046C571.861 753.101 558.737 743.075 536.351 744.955L472.927 750.28ZM551.738 776.755C552.4 784.647 548.41 790.474 537.217 791.413L498.617 794.654L496.099 764.664L534.699 761.423C546.036 760.471 550.786 765.419 551.461 773.455L551.738 776.755ZM700.582 830.876L722.249 829.057L713.937 730.045L680.933 732.816L657.143 802.298L621.956 737.768L589.096 740.527L597.409 839.538L617.068 837.888L610.152 755.522L646.356 821.845L669.028 819.942L693.667 748.51L700.582 830.876ZM768.277 784.442L783.783 738.488L806.734 781.213L768.277 784.442ZM768.815 725.438L733.648 828.1L754.025 826.389L762.583 800.96L815.102 796.551L827.781 820.197L850.31 818.306L798.662 722.932L768.815 725.438ZM853.245 718.35L861.557 817.361L945.072 810.35L943.59 792.7L881.887 797.88L875.056 716.518L853.245 718.35ZM949.936 710.232L958.249 809.243L980.06 807.412L971.747 708.401L949.936 710.232ZM1055.45 783.308L1022.16 786.103L1016.81 722.392L1050.1 719.597C1069.62 717.958 1080.86 724.528 1082.5 744.044L1083.26 753.084C1084.95 773.173 1074.97 781.67 1055.45 783.308ZM993.517 706.573L1001.83 805.585L1058.22 800.85C1091.37 798.067 1107.88 782.953 1104.86 747.079C1101.82 710.775 1083.06 699.055 1049.91 701.838L993.517 706.573ZM1146.91 752.653L1162.42 706.699L1185.37 749.424L1146.91 752.653ZM1147.45 693.649L1112.29 796.311L1132.66 794.6L1141.22 769.171L1193.74 764.762L1206.42 788.408L1228.95 786.517L1177.3 691.143L1147.45 693.649ZM1293.81 763.296L1260.52 766.091L1255.17 702.379L1288.47 699.584C1307.98 697.946 1319.23 704.516 1320.86 724.032L1321.62 733.072C1323.31 753.161 1313.33 761.658 1293.81 763.296ZM1231.88 686.561L1240.19 785.572L1296.59 780.838C1329.74 778.055 1346.24 762.941 1343.23 727.067C1340.18 690.763 1321.42 679.043 1288.28 681.826L1231.88 686.561ZM1510.39 663.178L1497.38 744.038L1469.2 666.636L1442.66 668.865L1427.07 749.941L1401.33 672.334L1379.52 674.166L1411.94 771.153L1440.49 768.756L1456.24 687.811L1484.4 765.069L1512.67 762.696L1529.33 661.588L1510.39 663.178ZM1542.27 660.501L1550.59 759.513L1572.4 757.682L1564.09 658.67L1542.27 660.501ZM1647.79 733.578L1614.5 736.373L1609.15 672.661L1642.44 669.866C1661.95 668.228 1673.2 674.798 1674.84 694.313L1675.6 703.353C1677.28 723.443 1667.3 731.939 1647.79 733.578ZM1585.85 656.842L1594.17 755.854L1650.56 751.119C1683.71 748.336 1700.21 733.223 1697.2 697.349C1694.15 661.044 1675.4 649.325 1642.25 652.108L1585.85 656.842ZM1710.43 646.383L1718.74 745.395L1805.56 738.106L1804.15 721.317L1739.15 726.775L1736.99 701.089L1787.64 696.836L1786.28 680.621L1735.63 684.874L1733.65 661.341L1798.08 655.932L1796.67 639.143L1710.43 646.383Z" fill="black"/>
<rect x="-37" y="498.785" width="1634.97" height="202" transform="rotate(-4.79909 -37 498.785)" fill="white"/>
<path d="M77.9735 644.678L107.677 642.184L99.3643 543.172L79.275 544.859L85.7926 622.49L26.6123 549.28L-3.23469 551.786L5.07797 650.798L25.1673 649.111L18.6256 571.193L77.9735 644.678ZM218.179 587.965C219.998 609.633 208.034 618.585 183.209 620.669C158.241 622.766 144.951 615.934 143.131 594.266L142.276 584.078C140.505 562.984 152.458 553.888 177.426 551.792C202.251 549.708 215.553 556.683 217.324 577.777L218.179 587.965ZM120.731 590.8C123.96 629.256 145.887 640.855 184.63 637.602C223.231 634.361 242.917 619.269 239.688 580.812C236.508 542.93 214.605 531.619 176.005 534.859C137.261 538.112 117.55 552.917 120.731 590.8ZM252.927 530.28L261.239 629.291L283.051 627.46L279.99 591.012L313.281 588.217L338.583 622.798L362.69 620.774L335.928 584.293C348.793 579.167 354.837 568.544 353.536 553.046C351.861 533.101 338.737 523.075 316.351 524.955L252.927 530.28ZM331.738 556.755C332.4 564.647 328.41 570.474 317.217 571.413L278.617 574.654L276.099 544.664L314.699 541.423C326.036 540.471 330.786 545.419 331.461 553.455L331.738 556.755ZM480.582 610.876L502.249 609.057L493.937 510.045L460.933 512.816L437.143 582.298L401.956 517.768L369.096 520.527L377.409 619.538L397.068 617.888L390.152 535.522L426.356 601.845L449.028 599.942L473.667 528.51L480.582 610.876ZM548.277 564.442L563.783 518.488L586.734 561.213L548.277 564.442ZM548.815 505.438L513.648 608.1L534.025 606.389L542.583 580.96L595.102 576.551L607.781 600.197L630.31 598.306L578.662 502.932L548.815 505.438ZM633.245 498.35L641.557 597.361L725.072 590.35L723.59 572.7L661.887 577.88L655.056 496.518L633.245 498.35ZM729.936 490.232L738.249 589.243L760.06 587.412L751.747 488.401L729.936 490.232ZM835.45 563.308L802.159 566.103L796.81 502.392L830.101 499.597C849.616 497.958 860.861 504.528 862.5 524.044L863.259 533.084C864.945 553.173 854.965 561.67 835.45 563.308ZM773.517 486.573L781.83 585.585L838.223 580.85C871.371 578.067 887.876 562.953 884.864 527.079C881.816 490.775 863.058 479.055 829.911 481.838L773.517 486.573ZM926.914 532.653L942.42 486.699L965.371 529.424L926.914 532.653ZM927.451 473.649L892.285 576.311L912.661 574.6L921.22 549.171L973.739 544.762L986.418 568.408L1008.95 566.517L957.298 471.143L927.451 473.649ZM1073.81 543.296L1040.52 546.091L1035.17 482.379L1068.47 479.584C1087.98 477.946 1099.23 484.516 1100.86 504.032L1101.62 513.072C1103.31 533.161 1093.33 541.658 1073.81 543.296ZM1011.88 466.561L1020.19 565.572L1076.59 560.838C1109.74 558.055 1126.24 542.941 1123.23 507.067C1120.18 470.763 1101.42 459.043 1068.28 461.826L1011.88 466.561ZM1290.39 443.178L1277.38 524.038L1249.2 446.636L1222.66 448.865L1207.07 529.941L1181.33 452.334L1159.52 454.166L1191.94 551.153L1220.49 548.756L1236.24 467.811L1264.4 545.069L1292.67 542.696L1309.33 441.588L1290.39 443.178ZM1322.27 440.501L1330.59 539.513L1352.4 537.682L1344.09 438.67L1322.27 440.501ZM1427.79 513.578L1394.5 516.373L1389.15 452.661L1422.44 449.866C1441.95 448.228 1453.2 454.798 1454.84 474.313L1455.6 483.353C1457.28 503.443 1447.3 511.939 1427.79 513.578ZM1365.85 436.842L1374.17 535.854L1430.56 531.119C1463.71 528.336 1480.21 513.223 1477.2 477.349C1474.15 441.044 1455.4 429.325 1422.25 432.108L1365.85 436.842ZM1490.43 426.383L1498.74 525.395L1585.56 518.106L1584.15 501.317L1519.15 506.775L1516.99 481.089L1567.64 476.836L1566.28 460.621L1515.63 464.874L1513.65 441.341L1578.08 435.932L1576.67 419.143L1490.43 426.383Z" fill="black"/>
<rect x="-95" y="653.785" width="1634.97" height="202" transform="rotate(-4.79909 -95 653.785)" fill="white"/>
<path d="M19.9735 799.678L49.677 797.184L41.3643 698.172L21.275 699.859L27.7926 777.49L-31.3877 704.28L-61.2347 706.786L-52.922 805.798L-32.8327 804.111L-39.3744 726.193L19.9735 799.678ZM160.179 742.965C161.998 764.633 150.034 773.585 125.209 775.669C100.241 777.766 86.9505 770.934 85.1314 749.266L84.276 739.078C82.5051 717.984 94.458 708.888 119.426 706.792C144.251 704.708 157.553 711.683 159.324 732.777L160.179 742.965ZM62.7309 745.8C65.9595 784.256 87.8868 795.855 126.63 792.602C165.231 789.361 184.917 774.269 181.688 735.812C178.508 697.93 156.605 686.619 118.005 689.859C79.2609 693.112 59.5504 707.917 62.7309 745.8ZM194.927 685.28L203.239 784.291L225.051 782.46L221.99 746.012L255.281 743.217L280.583 777.798L304.69 775.774L277.928 739.293C290.793 734.167 296.837 723.544 295.536 708.046C293.861 688.101 280.737 678.075 258.351 679.955L194.927 685.28ZM273.738 711.755C274.4 719.647 270.41 725.474 259.217 726.413L220.617 729.654L218.099 699.664L256.699 696.423C268.036 695.471 272.786 700.419 273.461 708.455L273.738 711.755ZM422.582 765.876L444.249 764.057L435.937 665.045L402.933 667.816L379.143 737.298L343.956 672.768L311.096 675.527L319.409 774.538L339.068 772.888L332.152 690.522L368.356 756.845L391.028 754.942L415.667 683.51L422.582 765.876ZM490.277 719.442L505.783 673.488L528.734 716.213L490.277 719.442ZM490.815 660.438L455.648 763.1L476.025 761.389L484.583 735.96L537.102 731.551L549.781 755.197L572.31 753.306L520.662 657.932L490.815 660.438ZM575.245 653.35L583.557 752.361L667.072 745.35L665.59 727.7L603.887 732.88L597.056 651.518L575.245 653.35ZM671.936 645.232L680.249 744.243L702.06 742.412L693.747 643.401L671.936 645.232ZM777.45 718.308L744.159 721.103L738.81 657.392L772.101 654.597C791.616 652.958 802.861 659.528 804.5 679.044L805.259 688.084C806.945 708.173 796.965 716.67 777.45 718.308ZM715.517 641.573L723.83 740.585L780.223 735.85C813.371 733.067 829.876 717.953 826.864 682.079C823.816 645.775 805.058 634.055 771.911 636.838L715.517 641.573ZM868.914 687.653L884.42 641.699L907.371 684.424L868.914 687.653ZM869.451 628.649L834.285 731.311L854.661 729.6L863.22 704.171L915.739 699.762L928.418 723.408L950.947 721.517L899.298 626.143L869.451 628.649ZM1015.81 698.296L982.524 701.091L977.175 637.379L1010.47 634.584C1029.98 632.946 1041.23 639.516 1042.86 659.032L1043.62 668.072C1045.31 688.161 1035.33 696.658 1015.81 698.296ZM953.881 621.561L962.194 720.572L1018.59 715.838C1051.74 713.055 1068.24 697.941 1065.23 662.067C1062.18 625.763 1043.42 614.043 1010.28 616.826L953.881 621.561ZM1232.39 598.178L1219.38 679.038L1191.2 601.636L1164.66 603.865L1149.07 684.941L1123.33 607.334L1101.52 609.166L1133.94 706.153L1162.49 703.756L1178.24 622.811L1206.4 700.069L1234.67 697.696L1251.33 596.588L1232.39 598.178ZM1264.27 595.501L1272.59 694.513L1294.4 692.682L1286.09 593.67L1264.27 595.501ZM1369.79 668.578L1336.5 671.373L1331.15 607.661L1364.44 604.866C1383.95 603.228 1395.2 609.798 1396.84 629.313L1397.6 638.353C1399.28 658.443 1389.3 666.939 1369.79 668.578ZM1307.85 591.842L1316.17 690.854L1372.56 686.119C1405.71 683.336 1422.21 668.223 1419.2 632.349C1416.15 596.044 1397.4 584.325 1364.25 587.108L1307.85 591.842ZM1432.43 581.383L1440.74 680.395L1527.56 673.106L1526.15 656.317L1461.15 661.775L1458.99 636.089L1509.64 631.836L1508.28 615.621L1457.63 619.874L1455.65 596.341L1520.08 590.932L1518.67 574.143L1432.43 581.383Z" fill="black"/>
<rect x="-35.0459" y="292" width="1634.97" height="202" transform="rotate(13.4411 -35.0459 292)" fill="white"/>
<path d="M28.4856 466.549L57.4771 473.477L80.5728 376.839L60.965 372.153L42.8566 447.923L9.56455 359.869L-19.5671 352.906L-42.6628 449.545L-23.055 454.231L-4.87964 378.181L28.4856 466.549ZM179.398 456.57C174.343 477.719 160.177 482.476 135.948 476.685C111.578 470.861 101.094 460.213 106.148 439.064L108.525 429.12C113.445 408.532 127.645 403.635 152.014 409.459C176.244 415.249 186.694 426.038 181.774 446.626L179.398 456.57ZM85.9583 428.761C76.9878 466.296 94.183 484.175 131.998 493.212C169.673 502.216 193.094 494.044 202.065 456.509C210.901 419.535 193.639 401.936 155.964 392.932C118.149 383.895 94.795 391.786 85.9583 428.761ZM230.454 412.659L207.359 509.298L228.647 514.386L237.149 478.811L269.642 486.577L282.849 527.339L306.378 532.963L292.379 489.938C306.202 489.096 315.268 480.899 318.883 465.773C323.535 446.305 314.208 432.676 292.359 427.454L230.454 412.659ZM297.019 462.472C295.178 470.175 289.564 474.46 278.64 471.849L240.965 462.845L247.961 433.573L285.636 442.577C296.7 445.222 299.663 451.408 297.789 459.251L297.019 462.472ZM421.444 560.462L442.592 565.517L465.688 468.878L433.475 461.179L389.132 519.724L375.912 447.422L343.839 439.757L320.744 536.396L339.931 540.981L359.144 460.589L372.77 534.912L394.898 540.201L440.657 480.07L421.444 560.462ZM500.272 537.55L529.382 498.758L537.807 546.52L500.272 537.55ZM519.251 481.679L453.718 568.175L473.606 572.928L489.694 551.456L540.954 563.707L545.594 590.133L567.583 595.388L548.382 488.641L519.251 481.679ZM601.657 501.373L578.561 598.012L660.074 617.493L664.191 600.266L603.967 585.873L622.945 506.461L601.657 501.373ZM696.03 523.928L672.935 620.566L694.223 625.654L717.319 529.016L696.03 523.928ZM773.37 626.359L740.877 618.593L755.738 556.408L788.231 564.174C807.279 568.726 815.902 578.486 811.35 597.533L809.241 606.357C804.555 625.965 792.417 630.911 773.37 626.359ZM738.567 534.094L715.471 630.732L770.513 643.887C802.866 651.619 823.273 642.43 831.641 607.416C840.109 571.982 825.962 554.98 793.609 547.248L738.567 534.094ZM869.833 625.872L898.943 587.08L907.368 634.842L869.833 625.872ZM888.812 570.001L823.279 656.497L843.167 661.25L859.255 639.778L910.515 652.028L915.156 678.455L937.144 683.71L917.943 576.963L888.812 570.001ZM1006.02 681.96L973.528 674.195L988.39 612.01L1020.88 619.775C1039.93 624.327 1048.55 634.087 1044 653.135L1041.89 661.958C1037.21 681.566 1025.07 686.512 1006.02 681.96ZM971.218 589.695L948.122 686.334L1003.16 699.488C1035.52 707.22 1055.92 698.032 1064.29 663.018C1072.76 627.584 1058.61 610.582 1026.26 602.85L971.218 589.695ZM1243.05 654.66L1205.38 727.385L1202.85 645.053L1176.94 638.861L1136.76 710.984L1136.61 629.221L1115.32 624.133L1115.75 726.395L1143.62 733.056L1183.91 661.107L1186.48 743.299L1214.07 749.893L1261.54 659.078L1243.05 654.66ZM1274.17 662.098L1251.08 758.737L1272.36 763.824L1295.46 667.186L1274.17 662.098ZM1351.51 764.529L1319.02 756.763L1333.88 694.579L1366.37 702.344C1385.42 706.896 1394.04 716.656 1389.49 735.704L1387.38 744.527C1382.7 764.135 1370.56 769.081 1351.51 764.529ZM1316.71 672.264L1293.61 768.902L1348.65 782.057C1381.01 789.789 1401.41 780.601 1409.78 745.587C1418.25 710.153 1404.1 693.15 1371.75 685.418L1316.71 672.264ZM1438.3 701.323L1415.2 797.962L1499.94 818.212L1503.85 801.826L1440.41 786.663L1446.4 761.593L1495.84 773.409L1499.62 757.582L1450.18 745.767L1455.67 722.797L1518.56 737.826L1522.47 721.44L1438.3 701.323Z" fill="black"/>
<rect x="-42.1855" y="655.029" width="1634.97" height="202" transform="rotate(5.62925 -42.1855 655.029)" fill="white"/>
<path d="M74.576 784.732L104.246 787.602L113.812 688.703L93.7452 686.763L86.2449 764.305L41.1427 681.675L11.3298 678.791L1.76386 777.689L21.8302 779.63L29.3582 701.802L74.576 784.732ZM222.676 754.064C220.582 775.707 207.207 782.37 182.41 779.972C157.471 777.56 145.62 768.456 147.713 746.813L148.698 736.637C150.736 715.567 164.125 708.761 189.065 711.173C213.861 713.571 225.698 722.818 223.66 743.888L222.676 754.064ZM126.297 739.389C122.581 777.802 142.075 793.142 180.774 796.885C219.33 800.614 241.403 789.295 245.118 750.882C248.778 713.043 229.257 697.989 190.701 694.26C152.001 690.517 129.957 701.55 126.297 739.389ZM267.198 703.54L257.632 802.438L279.419 804.546L282.94 768.139L316.193 771.356L334.888 809.911L358.967 812.24L339.176 771.553C352.751 768.816 360.601 759.448 362.099 743.968C364.026 724.045 352.91 711.83 330.55 709.668L267.198 703.54ZM339.989 743.71C339.226 751.594 334.256 756.61 323.076 755.529L284.52 751.8L287.418 721.843L325.974 725.573C337.297 726.668 341.084 732.387 340.308 740.414L339.989 743.71ZM476.724 823.63L498.367 825.723L507.933 726.825L474.967 723.636L439.109 787.73L416.058 717.938L383.235 714.763L373.669 813.662L393.305 815.561L401.263 733.289L424.995 805.027L447.641 807.218L484.682 741.358L476.724 823.63ZM551.645 790.079L575.135 747.647L590.058 793.795L551.645 790.079ZM562.748 732.127L509.753 826.825L530.106 828.793L543.083 805.309L595.542 810.384L603.778 835.919L626.281 838.096L592.561 735.01L562.748 732.127ZM647.081 740.284L637.516 839.182L720.934 847.251L722.639 829.621L661.007 823.66L668.868 742.391L647.081 740.284ZM743.662 749.626L734.096 848.524L755.882 850.631L765.448 751.733L743.662 749.626ZM834.372 840.429L801.119 837.212L807.274 773.573L840.527 776.79C860.02 778.675 869.906 787.154 868.02 806.647L867.147 815.677C865.206 835.743 853.865 842.314 834.372 840.429ZM787.193 753.836L777.627 852.735L833.956 858.183C867.066 861.386 886.013 849.474 889.479 813.642C892.986 777.379 876.632 762.487 843.522 759.285L787.193 753.836ZM929.849 826.661L953.339 784.229L968.261 830.376L929.849 826.661ZM940.952 768.709L887.956 863.406L908.309 865.375L921.287 841.891L973.746 846.965L981.982 872.501L1004.48 874.677L970.764 771.592L940.952 768.709ZM1072.46 863.458L1039.21 860.242L1045.37 796.603L1078.62 799.819C1098.11 801.704 1108 810.184 1106.11 829.677L1105.24 838.707C1103.3 858.773 1091.96 865.343 1072.46 863.458ZM1025.29 776.866L1015.72 875.764L1072.05 881.213C1105.16 884.415 1124.1 872.504 1127.57 836.671C1131.08 800.408 1114.72 785.517 1081.61 782.314L1025.29 776.866ZM1303.47 803.773L1276.18 880.993L1262.34 799.794L1235.82 797.23L1205.95 874.199L1194.54 793.237L1172.75 791.13L1187.27 892.357L1215.79 895.116L1245.79 818.303L1259.65 899.358L1287.89 902.089L1322.39 805.603L1303.47 803.773ZM1335.32 806.854L1325.76 905.752L1347.54 907.86L1357.11 808.961L1335.32 806.854ZM1426.03 897.657L1392.78 894.441L1398.93 830.802L1432.19 834.018C1451.68 835.903 1461.57 844.382 1459.68 863.876L1458.81 872.905C1456.87 892.972 1445.53 899.542 1426.03 897.657ZM1378.85 811.065L1369.29 909.963L1425.62 915.411C1458.73 918.614 1477.67 906.703 1481.14 870.87C1484.65 834.607 1468.29 819.715 1435.18 816.513L1378.85 811.065ZM1503.29 823.1L1493.72 921.999L1580.44 930.386L1582.06 913.617L1517.13 907.336L1519.61 881.68L1570.21 886.574L1571.78 870.378L1521.18 865.484L1523.45 841.978L1587.81 848.202L1589.43 831.433L1503.29 823.1Z" fill="black"/>
<rect x="51.001" y="816.207" width="1634.97" height="202" transform="rotate(-5.58679 51.001 816.207)" fill="white"/>
<path d="M169.715 932.458L199.382 929.556L189.709 830.668L169.645 832.631L177.229 910.165L117.048 837.776L87.2379 840.692L96.9109 939.58L116.975 937.617L109.363 859.796L169.715 932.458ZM309.128 873.823C311.245 895.464 299.404 904.58 274.611 907.005C249.674 909.445 236.291 902.796 234.174 881.155L233.179 870.98C231.118 849.912 242.945 840.653 267.882 838.214C292.675 835.788 306.072 842.58 308.133 863.648L309.128 873.823ZM211.728 877.997C215.485 916.406 237.57 927.702 276.265 923.917C314.817 920.145 334.294 904.784 330.537 866.376C326.836 828.54 304.779 817.531 266.227 821.302C227.532 825.087 208.027 840.162 211.728 877.997ZM343.079 815.666L352.752 914.554L374.536 912.423L370.976 876.021L404.225 872.768L430 906.998L454.077 904.642L426.816 868.533C439.608 863.23 445.506 852.525 443.992 837.047C442.044 817.126 428.782 807.282 406.425 809.469L343.079 815.666ZM422.247 841.055C423.018 848.937 419.108 854.818 407.929 855.911L369.377 859.683L366.447 829.73L404.999 825.958C416.321 824.851 421.14 829.733 421.925 837.759L422.247 841.055ZM571.821 893.125L593.462 891.008L583.789 792.12L550.826 795.344L527.993 865.147L491.923 801.106L459.104 804.316L468.777 903.204L488.411 901.284L480.364 819.02L517.476 884.84L540.12 882.625L563.774 810.861L571.821 893.125ZM638.872 845.764L653.744 799.601L677.28 842.007L638.872 845.764ZM638.598 786.759L604.846 889.894L625.197 887.904L633.405 862.359L685.859 857.228L698.862 880.698L721.362 878.497L668.408 783.843L638.598 786.759ZM722.923 778.51L732.596 877.398L816.006 869.239L814.281 851.611L752.655 857.639L744.707 776.379L722.923 778.51ZM819.493 769.064L829.166 867.952L850.95 865.821L841.277 766.933L819.493 769.064ZM926.002 840.683L892.752 843.935L886.528 780.303L919.777 777.051C939.268 775.144 950.603 781.559 952.509 801.05L953.392 810.079C955.355 830.143 945.493 838.776 926.002 840.683ZM863.02 764.806L872.693 863.694L929.016 858.185C962.122 854.946 978.418 839.607 974.913 803.778C971.366 767.519 952.449 756.058 919.343 759.297L863.02 764.806ZM1017.04 808.773L1031.91 762.61L1055.44 805.016L1017.04 808.773ZM1016.76 749.767L983.01 852.903L1003.36 850.912L1011.57 825.368L1064.02 820.237L1077.03 843.707L1099.53 841.506L1046.57 746.851L1016.76 749.767ZM1164.07 817.396L1130.82 820.648L1124.59 757.016L1157.84 753.764C1177.34 751.857 1188.67 758.272 1190.58 777.763L1191.46 786.792C1193.42 806.856 1183.56 815.489 1164.07 817.396ZM1101.09 741.519L1110.76 840.407L1167.08 834.898C1200.19 831.659 1216.48 816.32 1212.98 780.491C1209.43 744.232 1190.52 732.771 1157.41 736.009L1101.09 741.519ZM1379.24 714.31L1367.35 795.341L1338.11 718.334L1311.6 720.927L1297.12 802.21L1270.32 724.964L1248.54 727.095L1282.29 823.628L1310.81 820.838L1325.44 739.684L1354.66 816.549L1382.9 813.787L1398.16 712.46L1379.24 714.31ZM1411.09 711.195L1420.76 810.083L1442.55 807.952L1432.88 709.064L1411.09 711.195ZM1517.6 782.814L1484.35 786.066L1478.13 722.434L1511.38 719.182C1530.87 717.275 1542.2 723.69 1544.11 743.181L1544.99 752.21C1546.95 772.274 1537.09 780.907 1517.6 782.814ZM1454.62 706.937L1464.29 805.825L1520.61 800.316C1553.72 797.077 1570.02 781.738 1566.51 745.909C1562.96 709.65 1544.05 698.189 1510.94 701.428L1454.62 706.937ZM1579.04 694.766L1588.71 793.654L1675.42 785.173L1673.78 768.405L1608.86 774.756L1606.35 749.102L1656.94 744.153L1655.35 727.959L1604.76 732.907L1602.46 709.404L1666.81 703.109L1665.17 686.341L1579.04 694.766Z" fill="black"/>
</g>
<rect x="6.5" y="499.5" width="1306" height="341" stroke="black"/>
<rect x="3.5" y="3.5" width="1313" height="492" stroke="black" stroke-width="7"/>
<defs>
<clipPath id="clip0_375:95">
</clipPath>
</defs>
</svg>
